<svg width="99" height="22" viewBox="0 0 99 22" fill="none" xmlns="http://www.w3.org/2000/svg">
<g clip-path="url(#clip0_1589_3822)">
<path d="M23.9383 1.33836L23.9679 1.33187V1.10285H17.9276L12.3191 14.2848L6.71049 1.10285H0.20138V1.33187L0.230596 1.33836C1.33312 1.58721 1.89286 1.95833 1.89286 3.29672V18.9654C1.89286 20.3038 1.33095 20.6749 0.22843 20.9238L0.199219 20.9303V21.16H4.61545V20.931L4.58623 20.9245C3.48371 20.6756 2.92397 20.3045 2.92397 18.9661V4.20557L10.1288 21.16H10.5374L17.9521 3.73275V19.3531C17.8576 20.4102 17.303 20.7366 16.3047 20.962L16.2751 20.9689V21.1961H23.9679V20.9689L23.9383 20.962C22.9389 20.7366 22.3709 20.4102 22.2764 19.3531L22.2713 3.29672H22.2764C22.2764 1.95833 22.8361 1.58721 23.9383 1.33836ZM27.4522 11.718C27.578 8.90275 28.589 6.87082 30.2855 6.83583C30.8088 6.84449 31.2477 7.01616 31.5889 7.34652C32.3138 8.05016 32.6546 9.52056 32.602 11.718H27.4522ZM27.3761 12.5115H36.3925V12.4736C36.3669 10.3209 35.7433 8.64633 34.5409 7.49655C33.5014 6.50295 31.9625 5.95619 30.3461 5.95619H30.31C29.4711 5.95619 28.4422 6.1596 27.71 6.52819C26.8766 6.9141 26.1415 7.49115 25.5299 8.24852C24.5453 9.46862 23.9488 11.1175 23.8038 12.9706C23.7991 13.0261 23.7951 13.0817 23.7911 13.1372C23.7872 13.1928 23.7847 13.2425 23.7821 13.2955C23.7771 13.3947 23.7731 13.4943 23.771 13.5942C23.7673 13.7543 23.7663 13.9155 23.7691 14.0778C23.8669 18.2748 26.134 21.6288 30.1607 21.6288C33.6951 21.6288 35.7534 19.0451 36.2666 15.577L36.0073 15.4858C35.1056 17.3497 33.4863 18.4792 31.6433 18.3415C29.1274 18.1532 27.2001 15.6023 27.375 12.5122M46.5868 18.199C46.291 18.9005 45.6739 19.2864 44.847 19.2864C44.02 19.2864 43.264 18.7187 42.727 17.6872C42.15 16.58 41.8463 15.0148 41.8463 13.1607C41.8463 9.30164 43.0466 6.80554 44.9043 6.80554C45.6822 6.80554 46.2946 7.19144 46.5868 7.86478V18.199ZM52.5679 20.9501C51.4653 20.6893 50.9056 20.3009 50.9056 18.8944V0.179932L44.2071 2.15344V2.39508L44.2483 2.39183C45.1723 2.31718 45.7991 2.44485 46.163 2.78098C46.4479 3.04426 46.5868 3.44819 46.5868 4.01659V6.58229C45.9264 6.16069 45.1409 5.95547 44.1877 5.95547C42.2546 5.95547 40.4877 6.76947 39.2135 8.2478C37.8852 9.78852 37.183 11.894 37.183 14.336C37.1827 18.6974 39.3296 21.6288 42.5251 21.6288C44.3943 21.6288 45.8983 20.6046 46.5868 18.877V21.1961H52.5971V20.9559L52.5679 20.9501ZM58.3128 2.72508C58.3128 1.36324 57.286 0.336096 55.9238 0.336096C54.5681 0.336096 53.5074 1.3856 53.5074 2.72508C53.5074 4.06455 54.5691 5.11406 55.9238 5.11406C57.286 5.11406 58.3128 4.08692 58.3128 2.72508ZM59.8939 20.9501C58.7913 20.6893 58.2316 20.3009 58.2316 18.8944H58.2269V5.99983L52.2162 7.72557V7.96L52.2523 7.96324C53.5528 8.07901 53.9088 8.52695 53.9088 10.0468V21.1961H59.9245V20.9559L59.8939 20.9501ZM75.2957 20.9501C74.1931 20.6893 73.6334 20.3009 73.6334 18.8944V5.99983L67.9105 7.66859V7.90374L67.9444 7.90734C69.0076 8.01915 69.3149 8.49269 69.3149 10.0193V18.1702C68.9604 18.8716 68.2953 19.2882 67.4896 19.3163C66.183 19.3163 65.4635 18.4338 65.4635 16.8314V6.00019L59.4528 7.72593V7.96L59.4889 7.96324C60.7894 8.07865 61.1457 8.52659 61.1457 10.0468V16.945C61.1426 17.4266 61.1845 17.9074 61.2709 18.3811L61.379 18.8518C61.8879 20.6753 63.2213 21.6288 65.3102 21.6288C67.0796 21.6288 68.6304 20.5335 69.3135 18.8197V21.2H75.3242V20.9598L75.2957 20.9501ZM98.6456 21.1961V20.9555L98.6164 20.9487C97.4201 20.6728 96.9541 20.1527 96.9541 19.0938V10.3227C96.9541 7.5878 95.4181 5.95547 92.8452 5.95547C90.9698 5.95547 89.3883 7.03924 88.7795 8.72747C88.2959 6.93862 86.9041 5.95547 84.8462 5.95547C83.0386 5.95547 81.6219 6.90941 81.0142 8.52082V6.00092L75.0035 7.65597V7.89183L75.0396 7.89508C76.3246 8.00905 76.6961 8.46996 76.6961 9.95082V21.1961H82.3043V20.9559L82.2747 20.9487C81.3204 20.7243 81.0124 20.3153 81.0124 19.2658V9.2122C81.2649 8.62252 81.7738 7.92393 82.7796 7.92393C84.029 7.92393 84.6623 8.78951 84.6623 10.4947V21.1961H90.2719V20.9559L90.2423 20.9487C89.288 20.7243 88.98 20.3153 88.98 19.2658V10.3216C88.9825 9.98714 88.9559 9.65312 88.9007 9.32328C89.1683 8.68239 89.7064 7.92393 90.7534 7.92393C92.0204 7.92393 92.636 8.76462 92.636 10.4947V21.1961H98.6456Z" fill="#242424"/>
</g>
<defs>
<clipPath id="clip0_1589_3822">
<rect width="98.8557" height="22" fill="white"/>
</clipPath>
</defs>
</svg>
